<?xml version="1.0" encoding="utf-8"?>
<!-- Generator: Adobe Illustrator 28.1.0, SVG Export Plug-In . SVG Version: 6.00 Build 0)  -->
<svg version="1.1" id="Layer_1" xmlns="http://www.w3.org/2000/svg" xmlns:xlink="http://www.w3.org/1999/xlink" x="0px" y="0px"
	 viewBox="0 0 936.3 155.7" style="enable-background:new 0 0 936.3 155.7;" xml:space="preserve">
<style type="text/css">
	.st0{fill:#FFFFFF;}
</style>
<path class="st0" d="M532.4,0.4c8.3,0,17.1,4.4,17.1,19.2c0,11.6-6.5,19.2-17.1,19.2c-10,0-16.7-7.1-16.7-19.2
	C515.7,6.8,524,0.4,532.4,0.4"/>
<path class="st0" d="M506.6,146c9.7,0,9.9-5.4,9.9-13.6V73c0-7.8-2.6-10.4-9.9-10.4v-6.2l41.4-8.2v84.1c0,8.2,0.2,13.6,7.9,13.6v7
	h-49.3L506.6,146"/>
<path class="st0" d="M25.8,0.3c8.4,0,17.1,4.4,17.1,19.2c0,11.6-6.5,19.2-17.1,19.2C15.8,38.6,9,31.5,9,19.4
	C9,6.7,17.4,0.3,25.8,0.3"/>
<path class="st0" d="M139.6,145.9c8.5-0.4,10.3-1.5,10.3-19.2V81.8c0-17.7-1.8-18.8-10.3-19.2v-6.2l40.6-8.2v19
	c8.7-10.8,17.2-17.7,31.1-17.7c12.3,0,20.2,4.1,25,16.6c8.7-9.3,16.6-16.6,29.5-16.6c16.5,0,25.8,9.9,25.8,27.6v49.6
	c0,17.7,1.6,18.8,9.7,19.2v7h-49.9v-7c6.3,0.2,8.7-0.2,8.7-15.6v-42c0-14.1,0.8-24-9.7-24c-6.5,0-13.9,9.1-13.9,12.9v53
	c-0.2,15.3,1.8,15.8,8.1,15.6v7h-48.2v-7c6.3,0.2,8.7-0.2,8.7-15.6v-42c0-14.1,0.8-24-9.7-24c-6.5,0-13.9,9.1-13.9,12.9v53
	c0,15.3,1.8,15.8,8.1,15.6v7h-49.9L139.6,145.9"/>
<path class="st0" d="M354.1,99.4c-0.2,1.1-1.9,1.2-3.9,2c-8.8,3.6-16.3,10.6-16.3,22.1c0,6,1.6,15.6,8.9,15.6
	c6.1,0,11.5-3,11.3-12.3L354.1,99.4 M385.6,134.1c0,3.7,0,8.6,4.9,8.6c1.6,0,2.8-0.4,4-1.3l2.4-1.7v4.5l-2.4,2.1
	c-6.2,5.4-14.1,9.3-21.6,9.3c-8.9,0-15.2-4.5-18.2-13.4c-8.1,7.4-18.6,13.4-29.5,13.4c-13.9,0-22.8-7.4-22.8-22
	c0-22.9,30-34.2,48.7-40.3c0.4-0.1,3-1,3-5.5V73.7c0-13-2.5-17.9-11.2-17.9c-9.8,0-9,9.6-9,23.7c0,8.9-7.1,14.5-15.1,14.5
	c-8.5,0-13.5-7.1-13.5-15.6c0-21.8,23.8-28.9,40.6-28.9c22.4,0,39.8,5.4,39.8,32.6V134.1z"/>
<path class="st0" d="M397.8,145.9c8.1-0.4,9.7-1.5,9.7-19.2V82.4c0-17.7-1.6-18.8-9.7-19.2v-6.8l40.6-8.2v17.9h0.4
	c3.6-5.8,11.9-16.6,28.1-16.6c17.1,0,26.6,10.1,26.6,28.3v48.9c0,17.7,1.6,18.8,9.3,19.2v7h-48.4v-7c6-0.4,7.7-1.5,7.7-19.2V85.9
	c0-13.6-0.4-21.6-9.3-21.6c-6.5,0-13.7,6.9-13.7,13.2v49.1c0,17.7,1.6,18.8,7.7,19.2v7h-48.9V145.9"/>
<path class="st0" d="M0,145.9c9.7,0,9.9-5.4,9.9-13.6V72.9c0-7.8-2.6-10.4-9.9-10.4v-6.2l41.4-8.2v84.1c0,8.2,0.2,13.6,7.9,13.6v7H0
	V145.9"/>
<path class="st0" d="M53.8,145.9c9.7,0,9.9-5.4,9.9-13.6V25c0-7.8-2.6-10.4-9.9-10.4V8.4l41.4-8.2v132c0,8.2,0.2,13.6,7.8,13.6v7
	H53.8V145.9"/>
<path class="st0" d="M561,145.9c9.7,0,11.5-1.9,11.5-19.2V64.4H561v-10h11.5V34.6c0-22.9,16-34.6,36.2-34.6
	c13.1,0,28.6,6.7,28.6,23.1c0,8-5.2,13.4-12.5,13.4c-7.1,0-11.3-5.2-11.3-12.8c0-4.3,1.4-7.1,5.5-9.5c5-2.9,1-7.6-6.3-7.9
	c-22.9-1.1-8.7,16.5-8.7,38.9v9.3h17v10h-17v62.3c0,16.6,5.4,19.2,17,19.2v7h-60V145.9"/>
<path class="st0" d="M673.6,92.2c0-22,0.8-36.5-11.7-36.5c-14.7,0-14.3,25.3-14.7,36.5H673.6 M647.3,99.8
	c-0.4,18.3,7,38.2,26.6,38.2c14.9,0,22-11.9,24.4-15.8l4.5,2.8c-0.8,2.8-2.6,6.7-4.5,9.3c-9.3,14.3-21.2,21.4-37.5,21.4
	c-30.7,0-45.2-24.4-45.2-54.4c0-29.2,17.4-51.8,46.2-51.8c15.7,0,31.5,9.7,36.9,25.9c3.2,9.3,3.8,16.4,3.4,24.4H647.3z"/>
<path class="st0" d="M709.7,118.4h4c2.4,13.4,12.7,31.1,27,31.1c7.7,0,15.1-3.9,15.1-13c0-5.6-2.8-9.1-5.9-11.5
	c-4-3.2-8.1-5.4-15.9-9.5l-8.7-5.2c-9.9-6.3-16.8-16-16.8-28.7c0-19.7,12.7-32.2,30.9-32.2c7.9,0,12.3,1.1,15.6,2.4
	c3.2,1.1,5,2.4,7,2.4c2.8,0,4.6-2.4,4.6-4.7h4.2v32.6h-3.4c-2.2-12.5-11.3-26.3-24.2-26.3c-6.2,0-13.1,3.9-13.1,11.9
	c0,10.3,11.3,14,22.8,20.1c11.3,6,22.6,14.2,22.6,33.9c0,21.2-14.4,34.1-33.7,34.1c-10.5,0-19.2-5-22.8-5c-2.6,0-4.6,2.6-5.3,5h-4.2
	L709.7,118.4"/>
<path class="st0" d="M819.7,132.8c-0.4,6.9,0.4,9.1,4.4,9.1c5.3,0,8.9-8.2,9.5-9.3l4.2,2.6c-6.5,14.5-14.2,20.5-29.3,20.5
	c-7.9,0-20.4-3.2-20.4-21.6V64.4h-10.9v-8.6c17.5-3.5,31-20.5,34.9-40.9h7.5v39.5h16.8v9.9h-16.8L819.7,132.8"/>
<path class="st0" d="M902.8,88.1c-0.4-14.1-1.2-32.4-15.3-32.4c-14.3,0-14.8,18.3-15.2,32.4V117c0.4,14,0.8,32.4,15.2,32.4
	c14.1,0,14.9-18.4,15.3-32.4V88.1 M887.5,49.5c28.2,0,48.9,22.2,48.9,53.1c0,30.9-20.6,53.1-48.9,53.1c-28.1,0-48.7-22.2-48.7-53.1
	C838.8,71.7,859.4,49.5,887.5,49.5z"/>
<path class="st0" d="M172.9,35.8c1.7,0,2.9-0.5,3.9-1.8v6h5.3V21.5h-4.8v2.1c-0.9-1.6-2.3-2.4-4.4-2.4c-3.8,0-5.9,3.5-5.9,7
	C167,33.2,169.9,35.8,172.9,35.8z M174.7,25.3c1.7,0,2.3,1.6,2.3,3.1c0,1.4-0.8,3.1-2.3,3.1c-2,0-2.4-1.6-2.4-3.3
	C172.3,26.8,173.1,25.3,174.7,25.3z"/>
<path class="st0" d="M189.5,35.8c2.3,0,3.5-0.5,4.8-2.4v2h4.8V21.7h-5.3v6.6c0,2.1-0.4,3.3-2,3.3c-1.4,0-2-0.6-2-2.5v-7.3h-5.3v8.4
	C184.7,34,186.6,35.8,189.5,35.8z"/>
<path class="st0" d="M209,35.6c4.4,0,7.7-2.2,7.7-7.3c0-4.2-3-7-7.7-7c-4.5,0-7.6,2.7-7.7,7.3C201.3,33.2,204.6,35.6,209,35.6z
	 M209,24.9c1.4-0.1,2.3,1.5,2.3,3.5c0,2.7-0.8,3.8-2.3,3.8c-1.4,0-2.3-1.2-2.3-3.8C206.7,26.8,207.3,24.9,209,24.9z"/>
<path class="st0" d="M219.9,30.5c0,4.7,0.9,5.2,7.9,4.8v-3.9h-0.9c-1.5,0-1.7-0.5-1.7-1.6v-5h2.6v-3.1h-2.6v-4.2h-5.3v4.2h-2v3.1h2
	V30.5L219.9,30.5z"/>
<rect x="230.6" y="16" class="st0" width="5.3" height="3.9"/>
<rect x="230.6" y="21.7" class="st0" width="5.3" height="13.6"/>
<path class="st0" d="M244.6,35.8c1.7,0,2.9-0.6,4.1-2.2v1.8v0.2h4.8V16.6h-5.3V23c-1.1-1.4-2.3-1.8-3.9-1.8c-3.3,0-5.7,3-5.7,7.5
	C238.6,32.7,240.5,35.8,244.6,35.8z M246,25.5c1.8,0,2.3,1.6,2.3,3.1c0,1.6-0.6,3.1-2.4,3.3c-1.8,0-2.1-1.6-2.1-3.1
	S244.2,25.5,246,25.5z"/>
<rect x="256.2" y="21.7" class="st0" width="5.3" height="13.6"/>
<rect x="256.2" y="16" class="st0" width="5.3" height="3.9"/>
<path class="st0" d="M263.8,31.4c0,2.9,2.3,4.2,4.8,4.2c2,0,3.5-0.3,5-1.8l0.3,1.5h5.6V35c-0.8-0.6-0.8-1-0.8-1.8v-6.5
	c0-3.3-0.5-5.7-6.8-5.7c-5.4,0-7.4,1.8-7.4,4.6h5.1c0-1.2,1.1-1.4,1.8-1.4c0.6,0,1.8,0,1.8,1C273.3,28,263.8,25.1,263.8,31.4z
	 M273.5,29.2c0.2,2-0.6,3.4-2.4,3.4c-1.1,0-1.7-0.5-1.7-1.2C269.4,29.6,271.6,30.1,273.5,29.2z"/>
<path class="st0" d="M286.9,28.4c0-1.8,0.5-2.9,2.1-2.9c1.5,0,1.8,1.2,1.8,2.5v7.2h5.3v-8.2c0-3.8-1.7-5.9-5.1-5.9
	c-2,0-3.3,0.9-4.5,2.5v-2.1h-4.8v13.8h5.3L286.9,28.4L286.9,28.4z"/>
<path class="st0" d="M305.9,35.6c4.4,0,7.7-2.2,7.7-7.3c0-4.2-3-7-7.7-7c-4.5,0-7.5,2.7-7.7,7.3C298.2,33.2,301.5,35.6,305.9,35.6z
	 M305.9,24.9c1.4-0.1,2.3,1.5,2.3,3.5c0,2.7-0.8,3.8-2.3,3.8c-1.4,0-2.3-1.2-2.3-3.8C303.7,26.8,304.3,24.9,305.9,24.9z"/>
<path class="st0" d="M331.6,35.6c2,0,3.6-0.5,5-1.3c1.4-0.9,2.3-2.2,2.6-4.4h-5.4c-0.1,1.2-0.8,2.1-2.1,2.1c-1.5,0-2.3-1.4-2.3-3.5
	c0-1.6,0.3-3.8,2.3-3.8c0.6,0,1.1,0.3,1.4,0.6c0.3,0.3,0.6,0.8,0.6,1.4v0.1h5.4c-0.5-4.2-3.8-5.7-7.4-5.7c-4.5,0-7.7,2.7-7.7,7.3
	C323.9,33.1,327.2,35.6,331.6,35.6z"/>
<path class="st0" d="M348.7,35.6c4.4,0,7.7-2.2,7.7-7.3c0-4.2-3-7-7.7-7c-4.5,0-7.5,2.7-7.7,7.3C341,33.2,344.3,35.6,348.7,35.6z
	 M348.7,24.9c1.4-0.1,2.3,1.5,2.3,3.5c0,2.7-0.8,3.8-2.3,3.8c-1.4,0-2.3-1.2-2.3-3.8C346.4,26.8,347,24.9,348.7,24.9z"/>
<path class="st0" d="M363.9,35.2v-6.8c0-1.6,0.3-3,1.8-3c1.4,0,1.8,0.9,1.8,2.9v7.1h5.3v-6.8c0-1.6,0.3-3,1.8-3
	c1.4,0,1.8,0.9,1.8,2.9v7.1h5.3v-8.1c0-3.8-1.2-6-5.1-6c-2,0-3.5,0.9-4.7,2.5c-0.6-1.5-2-2.5-4.4-2.5c-2,0-3.6,1.4-4.2,2.4v-2.1
	h-4.7v13.5L363.9,35.2L363.9,35.2L363.9,35.2z"/>
<path class="st0" d="M389,35.8c2.3,0,3.5-0.5,4.8-2.4v2h4.8V21.7h-5.3v6.6c0,2.1-0.5,3.3-2,3.3c-1.4,0-2-0.6-2-2.5v-7.3h-5.3v8.4
	C384.1,34,386.1,35.8,389,35.8z"/>
<path class="st0" d="M406.5,28.4c0-1.8,0.5-2.9,2.1-2.9c1.5,0,1.8,1.2,1.8,2.5v7.2h5.3v-8.2c0-3.8-1.7-5.9-5.1-5.9
	c-2,0-3.3,0.9-4.5,2.5v-2.1h-4.8v13.8h5.3L406.5,28.4L406.5,28.4z"/>
<rect x="418.7" y="21.7" class="st0" width="5.3" height="13.6"/>
<rect x="418.7" y="16" class="st0" width="5.3" height="3.9"/>
<path class="st0" d="M433.5,32.8c-0.6,0-1.1-0.2-1.4-0.5c-0.5-0.3-0.6-0.6-0.6-1.2h-5.1c0.3,3.8,3.8,4.6,6.8,4.6c5,0,7.2-2,7.2-4.8
	c0-5.1-8.5-3.8-8.5-5.7c0-0.6,0.6-0.9,1.5-0.9c0.5,0,0.8,0,1.1,0.3c0.2,0.3,0.5,0.6,0.5,1h4.8c-0.3-3.6-3.8-4.4-6.6-4.4
	c-2.7,0-6.3,1-6.3,4.5c0,5.2,8.3,3.5,8.3,5.7C435.2,32.5,434.3,32.8,433.5,32.8z"/>
<path class="st0" d="M443.6,30.5c0,4.7,0.9,5.2,7.9,4.8v-3.9h-0.9c-1.5,0-1.7-0.5-1.7-1.6v-5h2.6v-3.1h-2.6v-4.2h-5.3v4.2h-2v3.1h2
	V30.5L443.6,30.5z"/>
<path class="st0" d="M453.3,31.4c0,2.9,2.3,4.2,4.8,4.2c2,0,3.5-0.3,5-1.8l0.3,1.5h5.6V35c-0.8-0.6-0.8-1-0.8-1.8v-6.5
	c0-3.3-0.5-5.7-6.8-5.7c-5.4,0-7.4,1.8-7.4,4.6h5.1c0-1.2,1.1-1.4,1.8-1.4c0.6,0,1.8,0,1.8,1C462.8,28,453.3,25.1,453.3,31.4z
	 M463,29.2c0.2,2-0.5,3.4-2.4,3.4c-1.1,0-1.7-0.5-1.7-1.2C458.9,29.6,461.2,30.1,463,29.2z"/>
</svg>
