<svg xmlns="http://www.w3.org/2000/svg" xmlns:xlink="http://www.w3.org/1999/xlink" width="158.995" height="57.947" viewBox="0 0 158.995 57.947">
  <defs>
    <clipPath id="clip-path">
      <rect id="Rectangle_100" data-name="Rectangle 100" width="158.994" height="57.946" fill="none"/>
    </clipPath>
  </defs>
  <g id="Group_105" data-name="Group 105" transform="translate(-1515.601 -2789.868)">
    <g id="Group_104" data-name="Group 104" transform="translate(1515.601 2789.868)">
      <path id="Path_58" data-name="Path 58" d="M14.917,29.822,9.208,41.368,3.476,29.822H0V47.2H2.755V34.217L8.24,45.391h1.911l5.486-11.174L15.661,47.2h2.705V29.822Z" transform="translate(0 10.742)" fill="#fff"/>
      <path id="Path_59" data-name="Path 59" d="M24.483,32.949l3.277,7.725H21.208ZM23.07,29.822,15.4,47.2h3.052l1.664-3.923h8.762L30.54,47.2h3.127L26.074,29.822Z" transform="translate(5.548 10.742)" fill="#fff"/>
      <path id="Path_60" data-name="Path 60" d="M29.688,29.822v2.632h10.6l-10.6,12.639V47.2H44.359V44.572h-10.7L44.236,31.933V29.822Z" transform="translate(10.695 10.742)" fill="#fff"/>
      <path id="Path_61" data-name="Path 61" d="M42.639,29.822v2.632h10.6l-10.6,12.639V47.2H57.31V44.572h-10.7L57.187,31.933V29.822Z" transform="translate(15.36 10.742)" fill="#fff"/>
      <path id="Path_62" data-name="Path 62" d="M64,32.949l3.277,7.725H60.728ZM62.59,29.822,54.92,47.2h3.054l1.662-3.923H68.4L70.06,47.2h3.127L65.594,29.822Z" transform="translate(19.783 10.742)" fill="#fff"/>
      <path id="Path_63" data-name="Path 63" d="M82.359,29.822V42.312L73.051,29.822h-2.88V47.2H73.1V34.737L82.359,47.2h2.878V29.822Z" transform="translate(25.277 10.742)" fill="#fff"/>
      <path id="Path_64" data-name="Path 64" d="M83.34,29.822v2.632h5.486V47.2h2.929V32.454h5.51V29.822Z" transform="translate(30.02 10.742)" fill="#fff"/>
      <rect id="Rectangle_98" data-name="Rectangle 98" width="2.929" height="17.382" transform="translate(130.051 40.564)" fill="#fff"/>
      <path id="Path_65" data-name="Path 65" d="M112.9,29.822V42.312l-9.308-12.491h-2.878V47.2h2.929V34.737L112.9,47.2h2.878V29.822Z" transform="translate(36.278 10.742)" fill="#fff"/>
      <rect id="Rectangle_99" data-name="Rectangle 99" width="2.93" height="17.382" transform="translate(156.065 40.564)" fill="#fff"/>
      <g id="Group_103" data-name="Group 103" transform="translate(0.001 0)">
        <g id="Group_102" data-name="Group 102" clip-path="url(#clip-path)">
          <path id="Path_66" data-name="Path 66" d="M104.138,1.125A74.075,74.075,0,0,0,81.4,9.039q-2.432,1.363-4.521,2.817a49.238,49.238,0,0,0-9.115,8.091c-6.808,7.8-8.252,14.819-8.252,14.819H76.92A31.309,31.309,0,0,1,81.4,22.588C91.05,6.828,111.655,0,111.655,0c-2.636.3-5.135.677-7.516,1.125" transform="translate(21.435 0)" fill="#fff"/>
          <path id="Path_67" data-name="Path 67" d="M29.688,0h0" transform="translate(10.694 0)" fill="#fff"/>
          <path id="Path_68" data-name="Path 68" d="M42.468,12.78v0h0Z" transform="translate(15.297 4.604)" fill="#fff"/>
          <path id="Path_69" data-name="Path 69" d="M71.513,17.846c-.409-.345-.837-.69-1.265-1.032-.054-.045-.107-.09-.163-.133-.026-.02-.05-.038-.076-.057-.763-.589-1.526-1.152-2.288-1.7l-.464-.333q-1.141-.808-2.274-1.56c-.132-.088-.265-.173-.4-.26q-1.09-.71-2.168-1.374c-.072-.044-.143-.09-.214-.132-.764-.465-1.523-.906-2.278-1.333l-.441-.249c-.749-.418-1.494-.822-2.229-1.2l-.226-.114q-1.049-.543-2.078-1.035l-.337-.163q-1.069-.51-2.114-.97l-.412-.181c-.706-.307-1.405-.605-2.091-.881l-.046-.019q-2.112-.851-4.078-1.522h0A77,77,0,0,0,29.689,0V34.765H47.071l0-17.378c.092.027,13.209,4.685,20.278,17.367a29.408,29.408,0,0,1,2.895-7.142,42.41,42.41,0,0,1,4.672-6.849c0-.008.007-.024.011-.03-.781-.709-3.418-2.888-3.418-2.888" transform="translate(10.694 0)" fill="#fff"/>
        </g>
      </g>
    </g>
  </g>
</svg>
