<svg xmlns="http://www.w3.org/2000/svg" viewBox="0 0 333.1 343.7"><defs><style>.cls-1{fill:none;stroke:#1d1d1b;stroke-linecap:round;stroke-miterlimit:10;stroke-width:6px;}.cls-2{fill:#1d1d1b;}</style></defs><g id="Layer_1" data-name="Layer 1"><line class="cls-1" x1="109.75" y1="172.66" x2="109.75" y2="193.99"/><polyline class="cls-1" points="109.75 283.79 109.75 337.38 3.93 270.38 3.93 7.33 109.75 74.33 109.75 78.88 109.75 83.78"/><path class="cls-2" d="M45.57,130.08H42.24v30.66H17.38V75.05H45.94q17.73,0,26.28,6.77t8.56,20.44q0,15.76-13.3,23l18.71,35.46H59.48Zm-3.33-16.74h4.19q4.8,0,7-2.65t2.21-8.43c0-3.53-.84-6.11-2.52-7.76S49,92,45.69,92H42.24Z"/><path class="cls-2" d="M146.15,134.64H110.2q.73,6.9,3.39,9.29c1.76,1.61,4.28,2.4,7.57,2.4a16.63,16.63,0,0,0,6.52-1.35,37.26,37.26,0,0,0,7.14-4.19l9.61,12.81a38.74,38.74,0,0,1-11.21,7,36.26,36.26,0,0,1-14,2.65q-16.26,0-24.5-9.48t-8.25-25.61a46.8,46.8,0,0,1,3.39-18.28A28,28,0,0,1,100,97.15q6.84-4.62,16.69-4.61,13.78,0,21.85,8.86T146.64,127A70.13,70.13,0,0,1,146.15,134.64Zm-22.9-14.4q0-6.4-1.29-9.55a4.81,4.81,0,0,0-4.86-3.14,5.28,5.28,0,0,0-4.93,2.9q-1.61,2.89-2.09,10.77h13.17Z"/><path class="cls-2" d="M207.77,145a4.89,4.89,0,0,0,2.65,2.28l-4.81,15.39a27.88,27.88,0,0,1-10.21-2.52,14.71,14.71,0,0,1-6.41-6.35q-6.27,9.36-18,9.36-8.86,0-14.28-5.78t-5.42-15.15q0-10.83,7.45-16.62t21.61-5.78h3.44v-1.73q0-5.3-1.6-7.08t-6.4-1.78q-5.79,0-15,3.32l-5.17-14.89a55.31,55.31,0,0,1,12.13-3.82,63.49,63.49,0,0,1,12.49-1.35q13.92,0,20.38,5.78t6.46,18.35v23.76A11.45,11.45,0,0,0,207.77,145Zm-24-2.15V132.3h-1.35q-4.18,0-6.1,1.85t-1.9,5.78a8.88,8.88,0,0,0,1.1,4.8,3.49,3.49,0,0,0,3.08,1.73C180.7,146.46,182.43,145.27,183.82,142.89Z"/><path class="cls-2" d="M270.37,101.15l-9.73,13.42q-5.29-4.18-10-4.18a7.48,7.48,0,0,0-7,3.87q-2.22,3.88-2.22,14.1,0,9.6,2.34,13a7.68,7.68,0,0,0,6.77,3.45,11.89,11.89,0,0,0,4.55-.86,30.3,30.3,0,0,0,5-2.84l10.22,14a31.69,31.69,0,0,1-21.42,8q-15.15,0-23.76-9.23t-8.62-25.61a42.67,42.67,0,0,1,3.94-18.84A29.43,29.43,0,0,1,231.65,97a31.38,31.38,0,0,1,16.81-4.43A31,31,0,0,1,270.37,101.15Z"/><path class="cls-2" d="M328,97.58q4.31,5.06,4.31,14v49.12H308.41V114.82q0-4.56-2.34-4.56t-6.28,5.91v44.57H275.91V69.14l23.88-2.46v34.23a24.82,24.82,0,0,1,7.58-6.41,19.18,19.18,0,0,1,8.8-2Q323.67,92.54,328,97.58Z"/><path class="cls-2" d="M79.3,194.39q9.36,11.52,9.36,33.67,0,21.8-9.42,33.61T52.09,273.49q-17.85,0-27.27-11.63t-9.41-33.8q0-21.8,9.41-33.49t27.27-11.69Q69.94,182.88,79.3,194.39Zm-33.61,8.74q-2.34,2.66-3.38,8.62a99,99,0,0,0-1.05,16.31,101,101,0,0,0,1.05,16.56q1,6,3.38,8.62a8.11,8.11,0,0,0,6.4,2.64,8.28,8.28,0,0,0,6.53-2.64c1.56-1.77,2.66-4.64,3.32-8.62a107,107,0,0,0,1-16.56,99.19,99.19,0,0,0-1-16.25q-1.05-6-3.45-8.68a8.16,8.16,0,0,0-6.34-2.65A8.12,8.12,0,0,0,45.69,203.13Z"/><path class="cls-2" d="M153.29,271H132.36l-.74-6.77q-6.41,9.23-17.23,9.23-8.13,0-12.38-5.42T97.77,253.3v-48h23.88v46.16q0,4.68,2.71,4.68c1.8,0,3.49-1.6,5-4.8v-46h23.88Z"/><path class="cls-2" d="M207.58,268a25.38,25.38,0,0,1-8.55,4.12,35.56,35.56,0,0,1-9.79,1.42q-11.44,0-17-6.4t-5.54-18v-27.7h-6.65V205.29h6.65V191.37l23.88-2.7v16.62h13.18l-2.47,16.12H190.59v27.46q0,5.91,4.19,5.91A10.9,10.9,0,0,0,200,253.3Z"/></g></svg>