<svg width="455" height="113" viewBox="0 0 455 113" fill="none" xmlns="http://www.w3.org/2000/svg">
<g clip-path="url(#clip0_51_442)">
<path d="M36.7757 29.783C34.4059 28.7297 31.7435 28.2031 28.8178 28.2031C22.1181 28.2031 17.1152 30.5144 13.8092 35.137C13.6921 35.3125 13.6044 35.488 13.5166 35.6636V29.4319H0V88.2671H13.4873V55.5289C13.4873 50.4675 14.7161 46.7519 17.1737 44.3821C19.6312 42.0123 22.7324 40.842 26.4773 40.842C28.2034 40.842 29.6955 41.0761 31.0121 41.5734C32.3286 42.0708 33.4989 42.89 34.5521 44.031L43.3877 34.9614C41.3397 32.5916 39.1454 30.8655 36.7757 29.8122V29.783Z" fill="#5AEC9F"/>
<path d="M164.774 43.3288C162.287 38.7063 158.893 35.0492 154.592 32.2991C150.292 29.5489 145.494 28.2031 140.198 28.2031C135.78 28.2031 131.831 29.1686 128.32 31.0703C125.921 32.3868 123.902 34.0545 122.205 36.0147V29.4026H108.718V112.755H122.205V81.7429C123.873 83.6738 125.862 85.3122 128.203 86.5995C131.714 88.5304 135.722 89.4666 140.227 89.4666C145.552 89.4666 150.35 88.1208 154.622 85.4292C158.922 82.7376 162.287 79.0805 164.803 74.4579C167.29 69.8354 168.548 64.6862 168.548 58.9519C168.548 53.2176 167.29 47.9514 164.803 43.3288H164.774ZM152.515 68.1385C151.082 70.8301 149.121 72.9366 146.635 74.4579C144.148 75.9793 141.251 76.74 138.004 76.74C134.756 76.74 131.831 75.9793 129.315 74.4579C126.769 72.9366 124.809 70.8301 123.434 68.1385C122.03 65.4469 121.357 62.3457 121.357 58.8349C121.357 55.3241 122.059 52.2229 123.434 49.5312C124.809 46.8396 126.769 44.7332 129.315 43.2118C131.86 41.6905 134.756 40.9298 138.004 40.9298C141.251 40.9298 144.148 41.6905 146.635 43.2118C149.121 44.7332 151.082 46.8396 152.515 49.5312C153.949 52.2229 154.651 55.3241 154.651 58.8349C154.651 62.3457 153.919 65.4469 152.515 68.1385Z" fill="#5AEC9F"/>
<path d="M270.303 89.4666C264.568 89.4666 259.39 88.0916 254.738 85.3707C250.086 82.6206 246.371 78.9342 243.65 74.2824C240.929 69.6306 239.554 64.4229 239.554 58.7178C239.554 53.0128 240.929 47.8636 243.65 43.2703C246.4 38.7063 250.086 35.0492 254.738 32.2991C259.39 29.5489 264.597 28.2031 270.303 28.2031C276.008 28.2031 281.332 29.5489 285.984 32.2405C290.636 34.9322 294.322 38.5892 297.072 43.2118C299.823 47.8344 301.168 52.9835 301.168 58.7178C301.168 64.4522 299.793 69.6306 297.072 74.2824C294.322 78.9342 290.636 82.6498 285.984 85.3707C281.332 88.1208 276.095 89.4666 270.303 89.4666V89.4666ZM270.303 76.4767C273.638 76.4767 276.622 75.716 279.197 74.1946C281.771 72.6733 283.761 70.5668 285.194 67.8752C286.628 65.1836 287.33 62.1116 287.33 58.6886C287.33 55.2656 286.599 52.2229 285.136 49.619C283.673 47.0152 281.654 44.9379 279.138 43.4166C276.593 41.8953 273.667 41.1346 270.303 41.1346C266.938 41.1346 264.1 41.8953 261.526 43.4166C258.951 44.9379 256.961 46.9859 255.528 49.619C254.094 52.2229 253.392 55.2656 253.392 58.6886C253.392 62.1116 254.094 65.1836 255.528 67.8752C256.961 70.5668 258.951 72.6733 261.526 74.1946C264.1 75.716 267.026 76.4767 270.303 76.4767V76.4767Z" fill="#5AEC9F"/>
<path d="M363.544 43.3288C361.057 38.7063 357.663 35.0492 353.362 32.2991C349.062 29.5489 344.263 28.2031 338.968 28.2031C334.55 28.2031 330.601 29.1686 327.09 31.0703C324.691 32.3868 322.672 34.0545 320.975 36.0147V29.4026H307.488V112.755H320.975V81.7429C322.643 83.6738 324.632 85.3122 326.973 86.5995C330.484 88.5304 334.492 89.4666 338.997 89.4666C344.322 89.4666 349.12 88.1208 353.392 85.4292C357.692 82.7376 361.057 79.0805 363.573 74.4579C366.06 69.8354 367.318 64.6862 367.318 58.9519C367.318 53.2176 366.06 47.9514 363.573 43.3288H363.544ZM351.285 68.1385C349.851 70.8301 347.891 72.9366 345.404 74.4579C342.918 75.9793 340.021 76.74 336.774 76.74C333.526 76.74 330.601 75.9793 328.085 74.4579C325.539 72.9366 323.579 70.8301 322.204 68.1385C320.8 65.4469 320.127 62.3457 320.127 58.8349C320.127 55.3241 320.829 52.2229 322.204 49.5312C323.579 46.8396 325.539 44.7332 328.085 43.2118C330.63 41.6905 333.526 40.9298 336.774 40.9298C340.021 40.9298 342.918 41.6905 345.404 43.2118C347.891 44.7332 349.851 46.8396 351.285 49.5312C352.719 52.2229 353.421 55.3241 353.421 58.8349C353.421 62.3457 352.689 65.4469 351.285 68.1385Z" fill="#5AEC9F"/>
<path d="M373.579 88.2382V0H387.066V88.2382H373.579V88.2382Z" fill="#5AEC9F"/>
<path d="M212.842 74.2241C210.268 75.7455 207.313 76.5061 203.948 76.5061C200.584 76.5061 197.746 75.7455 195.171 74.2241C193.357 73.1709 191.836 71.7958 190.607 70.1282L180.455 78.6711C182.679 81.3042 185.312 83.5863 188.384 85.3709C193.036 88.121 198.243 89.4668 203.948 89.4668C209.653 89.4668 214.978 88.0918 219.63 85.3709C222.702 83.557 225.306 81.3042 227.558 78.6711L217.406 70.1282C216.148 71.7958 214.656 73.1709 212.842 74.2241V74.2241Z" fill="#5AEC9F"/>
<path d="M234.258 52.8373C233.644 49.4142 232.503 46.196 230.747 43.2118C227.997 38.5892 224.311 34.9322 219.659 32.2405C215.007 29.5489 209.77 28.2031 203.978 28.2031C198.185 28.2031 193.065 29.5782 188.413 32.2991C183.761 35.0492 180.046 38.7063 177.325 43.2703C175.569 46.2252 174.428 49.4142 173.814 52.8373C173.463 54.7389 173.229 56.6699 173.229 58.7178C173.229 60.5025 173.404 62.1994 173.668 63.867H234.434C234.697 62.1994 234.873 60.5025 234.873 58.7178C234.873 56.6699 234.639 54.7389 234.288 52.8373H234.258ZM187.886 52.8373C188.238 51.7255 188.618 50.643 189.174 49.6483C190.607 47.0444 192.597 44.9672 195.171 43.4459C197.746 41.9245 200.672 41.1638 203.948 41.1638C207.225 41.1638 210.239 41.9245 212.784 43.4459C215.329 44.9672 217.319 47.0152 218.781 49.6483C219.337 50.643 219.747 51.7255 220.098 52.8373H187.886V52.8373Z" fill="#5AEC9F"/>
<path d="M433.028 74.2241C430.454 75.7455 427.499 76.5061 424.134 76.5061C420.77 76.5061 417.932 75.7455 415.357 74.2241C413.543 73.1709 412.022 71.7958 410.793 70.1282L400.641 78.6711C402.865 81.3042 405.498 83.5863 408.57 85.3709C413.221 88.121 418.429 89.4668 424.134 89.4668C429.839 89.4668 435.164 88.0918 439.816 85.3709C442.888 83.557 445.492 81.3042 447.744 78.6711L437.592 70.1282C436.334 71.7958 434.842 73.1709 433.028 74.2241V74.2241Z" fill="#5AEC9F"/>
<path d="M454.415 52.8373C453.801 49.4142 452.659 46.196 450.904 43.2118C448.154 38.5892 444.468 34.9322 439.816 32.2405C435.164 29.5489 429.927 28.2031 424.134 28.2031C418.341 28.2031 413.221 29.5782 408.57 32.2991C403.918 35.0492 400.202 38.7063 397.481 43.2703C395.726 46.2252 394.585 49.4142 393.971 52.8373C393.62 54.7389 393.385 56.6699 393.385 58.7178C393.385 60.5025 393.561 62.1994 393.824 63.867H454.59C454.854 62.1994 455.029 60.5025 455.029 58.7178C455.029 56.6699 454.795 54.7389 454.444 52.8373H454.415ZM408.043 52.8373C408.394 51.7255 408.774 50.643 409.33 49.6483C410.764 47.0444 412.753 44.9672 415.328 43.4459C417.903 41.9245 420.828 41.1638 424.105 41.1638C427.382 41.1638 430.395 41.9245 432.94 43.4459C435.486 44.9672 437.475 47.0152 438.938 49.6483C439.494 50.643 439.904 51.7255 440.255 52.8373H408.043V52.8373Z" fill="#5AEC9F"/>
<path d="M80.3974 74.2241C77.8228 75.7455 74.8679 76.5061 71.5033 76.5061C68.1388 76.5061 65.3009 75.7455 62.7263 74.2241C60.9124 73.1709 59.3911 71.7958 58.1623 70.1282L48.0102 78.6711C50.2337 81.3042 52.8668 83.5863 55.9388 85.3709C60.5906 88.121 65.7983 89.4668 71.5033 89.4668C77.2084 89.4668 82.5331 88.0918 87.1849 85.3709C90.2569 83.557 92.8607 81.3042 95.1135 78.6711L84.9614 70.1282C83.7034 71.7958 82.2113 73.1709 80.3974 74.2241V74.2241Z" fill="#5AEC9F"/>
<path d="M101.813 52.8373C101.199 49.4142 100.058 46.196 98.3025 43.2118C95.5523 38.5892 91.866 34.9322 87.2142 32.2405C82.5624 29.5489 77.3254 28.2031 71.5326 28.2031C65.7398 28.2031 60.6198 29.5782 55.968 32.2991C51.3162 35.0492 47.6006 38.7063 44.8798 43.2703C43.1244 46.2252 41.9833 49.4142 41.3689 52.8373C41.0179 54.7389 40.7838 56.6699 40.7838 58.7178C40.7838 60.5025 40.9594 62.1994 41.2227 63.867H101.989C102.252 62.1994 102.428 60.5025 102.428 58.7178C102.428 56.6699 102.194 54.7389 101.843 52.8373H101.813ZM55.4414 52.8373C55.7925 51.7255 56.1728 50.643 56.7287 49.6483C58.1623 47.0444 60.1517 44.9672 62.7263 43.4459C65.3009 41.9245 68.2266 41.1638 71.5033 41.1638C74.7801 41.1638 77.7935 41.9245 80.3389 43.4459C82.8842 44.9672 84.8736 47.0152 86.3365 49.6483C86.8924 50.643 87.3019 51.7255 87.653 52.8373H55.4414Z" fill="#5AEC9F"/>
</g>
<defs>
<clipPath id="clip0_51_442">
<rect width="455" height="112.755" fill="white"/>
</clipPath>
</defs>
</svg>
