<?xml version="1.0" encoding="utf-8"?>
<!-- Generator: Adobe Illustrator 27.8.1, SVG Export Plug-In . SVG Version: 6.00 Build 0)  -->
<svg version="1.1" id="Layer_1" xmlns="http://www.w3.org/2000/svg" xmlns:xlink="http://www.w3.org/1999/xlink" x="0px" y="0px"
	 viewBox="0 0 455 113" style="enable-background:new 0 0 455 113;" xml:space="preserve">
<style type="text/css">
	.st0{clip-path:url(#SVGID_00000082355041983266570590000017464611250130352773_);}
	.st1{fill:#FFFFFF;}
</style>
<g>
	<defs>
		<rect id="SVGID_1_" y="0" width="455" height="112.8"/>
	</defs>
	<clipPath id="SVGID_00000045610637010332155290000000970558798741356162_">
		<use xlink:href="#SVGID_1_"  style="overflow:visible;"/>
	</clipPath>
	<g style="clip-path:url(#SVGID_00000045610637010332155290000000970558798741356162_);">
		<path class="st1" d="M36.8,29.8c-2.4-1.1-5-1.6-8-1.6c-6.7,0-11.7,2.3-15,6.9c-0.1,0.2-0.2,0.4-0.3,0.5v-6.2H0v58.8h13.5V55.5
			c0-5.1,1.2-8.8,3.7-11.1c2.5-2.4,5.6-3.5,9.3-3.5c1.7,0,3.2,0.2,4.5,0.7c1.3,0.5,2.5,1.3,3.5,2.5l8.8-9.1
			C41.3,32.6,39.1,30.9,36.8,29.8L36.8,29.8z"/>
		<path class="st1" d="M164.8,43.3c-2.5-4.6-5.9-8.3-10.2-11c-4.3-2.8-9.1-4.1-14.4-4.1c-4.4,0-8.4,1-11.9,2.9
			c-2.4,1.3-4.4,3-6.1,4.9v-6.6h-13.5v83.4h13.5v-31c1.7,1.9,3.7,3.6,6,4.9c3.5,1.9,7.5,2.9,12,2.9c5.3,0,10.1-1.3,14.4-4
			c4.3-2.7,7.7-6.3,10.2-11c2.5-4.6,3.7-9.8,3.7-15.5C168.5,53.2,167.3,48,164.8,43.3L164.8,43.3z M152.5,68.1
			c-1.4,2.7-3.4,4.8-5.9,6.3c-2.5,1.5-5.4,2.3-8.6,2.3c-3.2,0-6.2-0.8-8.7-2.3c-2.5-1.5-4.5-3.6-5.9-6.3c-1.4-2.7-2.1-5.8-2.1-9.3
			s0.7-6.6,2.1-9.3c1.4-2.7,3.3-4.8,5.9-6.3c2.5-1.5,5.4-2.3,8.7-2.3c3.2,0,6.1,0.8,8.6,2.3c2.5,1.5,4.4,3.6,5.9,6.3
			c1.4,2.7,2.1,5.8,2.1,9.3S153.9,65.4,152.5,68.1z"/>
		<path class="st1" d="M270.3,89.5c-5.7,0-10.9-1.4-15.6-4.1c-4.7-2.8-8.4-6.4-11.1-11.1c-2.7-4.7-4.1-9.9-4.1-15.6
			c0-5.7,1.4-10.9,4.1-15.4c2.8-4.6,6.4-8.2,11.1-11c4.7-2.8,9.9-4.1,15.6-4.1c5.7,0,11,1.3,15.7,4c4.7,2.7,8.3,6.3,11.1,11
			c2.8,4.6,4.1,9.8,4.1,15.5c0,5.7-1.4,10.9-4.1,15.6c-2.8,4.7-6.4,8.4-11.1,11.1C281.3,88.1,276.1,89.5,270.3,89.5L270.3,89.5z
			 M270.3,76.5c3.3,0,6.3-0.8,8.9-2.3c2.6-1.5,4.6-3.6,6-6.3c1.4-2.7,2.1-5.8,2.1-9.2s-0.7-6.5-2.2-9.1c-1.5-2.6-3.5-4.7-6-6.2
			c-2.5-1.5-5.5-2.3-8.8-2.3c-3.4,0-6.2,0.8-8.8,2.3c-2.6,1.5-4.6,3.6-6,6.2c-1.4,2.6-2.1,5.6-2.1,9.1s0.7,6.5,2.1,9.2
			c1.4,2.7,3.4,4.8,6,6.3C264.1,75.7,267,76.5,270.3,76.5L270.3,76.5z"/>
		<path class="st1" d="M363.5,43.3c-2.5-4.6-5.9-8.3-10.2-11c-4.3-2.8-9.1-4.1-14.4-4.1c-4.4,0-8.4,1-11.9,2.9
			c-2.4,1.3-4.4,3-6.1,4.9v-6.6h-13.5v83.4H321v-31c1.7,1.9,3.7,3.6,6,4.9c3.5,1.9,7.5,2.9,12,2.9c5.3,0,10.1-1.3,14.4-4
			c4.3-2.7,7.7-6.3,10.2-11c2.5-4.6,3.7-9.8,3.7-15.5C367.3,53.2,366.1,48,363.5,43.3L363.5,43.3z M351.3,68.1
			c-1.4,2.7-3.4,4.8-5.9,6.3c-2.5,1.5-5.4,2.3-8.6,2.3c-3.2,0-6.2-0.8-8.7-2.3c-2.5-1.5-4.5-3.6-5.9-6.3c-1.4-2.7-2.1-5.8-2.1-9.3
			s0.7-6.6,2.1-9.3c1.4-2.7,3.3-4.8,5.9-6.3c2.5-1.5,5.4-2.3,8.7-2.3c3.2,0,6.1,0.8,8.6,2.3c2.5,1.5,4.4,3.6,5.9,6.3
			c1.4,2.7,2.1,5.8,2.1,9.3S352.7,65.4,351.3,68.1z"/>
		<path class="st1" d="M373.6,88.2V0h13.5v88.2H373.6L373.6,88.2z"/>
		<path class="st1" d="M212.8,74.2c-2.6,1.5-5.5,2.3-8.9,2.3c-3.4,0-6.2-0.8-8.8-2.3c-1.8-1.1-3.3-2.4-4.6-4.1l-10.2,8.5
			c2.2,2.6,4.9,4.9,7.9,6.7c4.7,2.8,9.9,4.1,15.6,4.1s11-1.4,15.7-4.1c3.1-1.8,5.7-4.1,7.9-6.7l-10.2-8.5
			C216.1,71.8,214.7,73.2,212.8,74.2L212.8,74.2z"/>
		<path class="st1" d="M234.3,52.8c-0.6-3.4-1.8-6.6-3.5-9.6c-2.8-4.6-6.4-8.3-11.1-11c-4.7-2.7-9.9-4-15.7-4
			c-5.8,0-10.9,1.4-15.6,4.1c-4.7,2.8-8.4,6.4-11.1,11c-1.8,3-2.9,6.1-3.5,9.6c-0.4,1.9-0.6,3.8-0.6,5.9c0,1.8,0.2,3.5,0.4,5.1h60.8
			c0.3-1.7,0.4-3.4,0.4-5.1C234.9,56.7,234.6,54.7,234.3,52.8L234.3,52.8z M187.9,52.8c0.4-1.1,0.7-2.2,1.3-3.2
			c1.4-2.6,3.4-4.7,6-6.2c2.6-1.5,5.5-2.3,8.8-2.3c3.3,0,6.3,0.8,8.8,2.3c2.5,1.5,4.5,3.6,6,6.2c0.6,1,1,2.1,1.3,3.2H187.9
			L187.9,52.8z"/>
		<path class="st1" d="M433,74.2c-2.6,1.5-5.5,2.3-8.9,2.3c-3.4,0-6.2-0.8-8.8-2.3c-1.8-1.1-3.3-2.4-4.6-4.1l-10.2,8.5
			c2.2,2.6,4.9,4.9,7.9,6.7c4.7,2.8,9.9,4.1,15.6,4.1c5.7,0,11-1.4,15.7-4.1c3.1-1.8,5.7-4.1,7.9-6.7l-10.2-8.5
			C436.3,71.8,434.8,73.2,433,74.2L433,74.2z"/>
		<path class="st1" d="M454.4,52.8c-0.6-3.4-1.8-6.6-3.5-9.6c-2.8-4.6-6.4-8.3-11.1-11c-4.7-2.7-9.9-4-15.7-4s-10.9,1.4-15.6,4.1
			c-4.7,2.8-8.4,6.4-11.1,11c-1.8,3-2.9,6.1-3.5,9.6c-0.4,1.9-0.6,3.8-0.6,5.9c0,1.8,0.2,3.5,0.4,5.1h60.8c0.3-1.7,0.4-3.4,0.4-5.1
			C455,56.7,454.8,54.7,454.4,52.8L454.4,52.8z M408,52.8c0.4-1.1,0.7-2.2,1.3-3.2c1.4-2.6,3.4-4.7,6-6.2c2.6-1.5,5.5-2.3,8.8-2.3
			c3.3,0,6.3,0.8,8.8,2.3c2.5,1.5,4.5,3.6,6,6.2c0.6,1,1,2.1,1.3,3.2H408L408,52.8z"/>
		<path class="st1" d="M80.4,74.2c-2.6,1.5-5.5,2.3-8.9,2.3c-3.4,0-6.2-0.8-8.8-2.3c-1.8-1.1-3.3-2.4-4.6-4.1L48,78.7
			c2.2,2.6,4.9,4.9,7.9,6.7c4.7,2.8,9.9,4.1,15.6,4.1c5.7,0,11-1.4,15.7-4.1c3.1-1.8,5.7-4.1,7.9-6.7L85,70.1
			C83.7,71.8,82.2,73.2,80.4,74.2L80.4,74.2z"/>
		<path class="st1" d="M101.8,52.8c-0.6-3.4-1.8-6.6-3.5-9.6c-2.8-4.6-6.4-8.3-11.1-11c-4.7-2.7-9.9-4-15.7-4S60.6,29.6,56,32.3
			c-4.7,2.8-8.4,6.4-11.1,11c-1.8,3-2.9,6.1-3.5,9.6c-0.4,1.9-0.6,3.8-0.6,5.9c0,1.8,0.2,3.5,0.4,5.1H102c0.3-1.7,0.4-3.4,0.4-5.1
			C102.4,56.7,102.2,54.7,101.8,52.8L101.8,52.8z M55.4,52.8c0.4-1.1,0.7-2.2,1.3-3.2c1.4-2.6,3.4-4.7,6-6.2
			c2.6-1.5,5.5-2.3,8.8-2.3c3.3,0,6.3,0.8,8.8,2.3c2.5,1.5,4.5,3.6,6,6.2c0.6,1,1,2.1,1.3,3.2H55.4z"/>
	</g>
</g>
</svg>
