<?xml version="1.0" encoding="utf-8"?>
<!-- Generator: Adobe Illustrator 28.2.0, SVG Export Plug-In . SVG Version: 6.00 Build 0)  -->
<svg version="1.1" id="Layer_1" xmlns="http://www.w3.org/2000/svg" xmlns:xlink="http://www.w3.org/1999/xlink" x="0px" y="0px"
	 viewBox="0 0 222 50" style="enable-background:new 0 0 222 50;" xml:space="preserve">
<style type="text/css">
	.st0{stroke:#FFFFFF;stroke-miterlimit:10;}
	.st1{fill-rule:evenodd;clip-rule:evenodd;fill:#FFFFFE;}
	.st2{fill-rule:evenodd;clip-rule:evenodd;}
</style>
<g id="logo-tuttoimmobilich_x28_1_x29_" transform="translate(-31.000000, -46.000000)">
	<polygon id="Fill-1" class="st0" points="130.7,95.7 95.9,80.3 111.5,46 146.2,61.4 	"/>
	<path id="Fill-2" class="st1" d="M93.2,78.2c3.1,0,3.9-2.7,3.9-5.2c0-2.3-1.2-4.5-3.9-4.5c-2.6,0-3.8,2.2-3.8,4.5
		C89.3,75.5,90.1,78.2,93.2,78.2 M93.2,65.4c4.5,0,8,3,8,8c0,4.3-2.9,7.8-8,7.8c-5.1,0-8-3.5-8-7.8C85.2,68.4,88.6,65.4,93.2,65.4"
		/>
	<path id="Fill-4" class="st1" d="M107.5,80.8h4V65.6h-4V80.8z M107.5,62.9h4v-3.8h-4V62.9z"/>
	<g id="Group-19" transform="translate(31.000000, 57.732000)">
		<path id="Fill-5" class="st1" d="M84.5,7.9h3.7V10h0.1c1.2-1.9,3.1-2.5,4.6-2.5c2.1,0,3.7,0.8,4.5,2.7c0.9-1.8,2.9-2.7,4.8-2.7
			c3.8,0,4.8,2.6,4.8,5.9V23h-4v-9c0-1.4,0-3.4-2.3-3.4c-2.6,0-3,3.1-3,5.1V23h-4v-9c0-1.4,0-3.4-2.3-3.4c-2.6,0-3,3.1-3,5.1V23h-4
			V7.9z"/>
		<path id="Fill-7" class="st2" d="M3.2,10.4H0.3V7.5h2.9v-3l4-1.3v4.3h3.5v2.9H7.2v7.1c0,1.3,0.4,2.5,1.9,2.5
			c0.7,0,1.4-0.1,1.8-0.4l0.1,3.1C10.2,22.9,9.2,23,8,23c-3.1,0-4.8-1.9-4.8-4.9V10.4z"/>
		<path id="Fill-9" class="st2" d="M27.4,22.7h-3.8v-2.1h-0.1c-1.2,1.5-2.9,2.4-5,2.4c-3.6,0-5.2-2.5-5.2-5.9V7.5h4v8.1
			c0,1.9,0,4.3,2.6,4.3c2.9,0,3.5-3.1,3.5-5V7.5h4V22.7z"/>
		<path id="Fill-11" class="st2" d="M32.7,10.4h-2.9V7.5h2.9v-3l4-1.3v4.3h3.5v2.9h-3.5v7.1c0,1.3,0.4,2.5,1.9,2.5
			c0.7,0,1.4-0.1,1.8-0.4l0.1,3.1c-0.8,0.2-1.8,0.4-2.9,0.4c-3.1,0-4.9-1.9-4.9-4.9V10.4z"/>
		<path id="Fill-13" class="st2" d="M44.2,10.4h-2.9V7.5h2.9v-3l4-1.3v4.3h3.5v2.9h-3.5v7.1c0,1.3,0.4,2.5,1.9,2.5
			c0.7,0,1.4-0.1,1.8-0.4l0.1,3.1C51.1,22.9,50.2,23,49,23c-3.1,0-4.8-1.9-4.8-4.9V10.4z"/>
		<path id="Fill-15" class="st2" d="M146,20c3.1,0,3.9-2.7,3.9-5.2c0-2.3-1.2-4.5-3.9-4.5c-2.6,0-3.8,2.2-3.8,4.5
			C142.1,17.2,142.9,20,146,20 M146,7.2c4.5,0,8,3,8,8c0,4.3-2.9,7.8-8,7.8c-5.1,0-8-3.5-8-7.8C138,10.2,141.5,7.2,146,7.2"/>
		<path id="Fill-17" class="st2" d="M164.5,20c2.6,0,3.4-2.8,3.4-4.9c0-2-0.7-4.8-3.3-4.8c-2.6,0-3.6,2.7-3.6,4.8
			C161,17.2,161.9,20,164.5,20L164.5,20z M157,0.6h4v8.8h0.1c1.1-1.4,2.5-2.3,4.6-2.3c4.7,0,6.4,3.7,6.4,7.9c0,4.1-1.7,8-6.4,8
			c-1.7,0-3.5-0.6-4.7-2.2h-0.1v1.9H157V0.6z"/>
	</g>
	<path id="Fill-20" class="st2" d="M206.2,80.8h4V65.6h-4V80.8z M206.2,62.9h4v-3.8h-4V62.9z"/>
	<polygon id="Fill-21" class="st2" points="214.3,80.8 218.3,80.8 218.3,58.7 214.3,58.7 	"/>
	<path id="Fill-22" class="st2" d="M222.4,80.8h4V65.6h-4V80.8z M222.4,62.9h4v-3.8h-4V62.9z"/>
	<g id="Group-31" transform="translate(84.000000, 64.732000)">
		<path id="Fill-23" class="st2" d="M8.3,13c3.1,0,3.9-2.7,3.9-5.2c0-2.3-1.2-4.5-3.9-4.5c-2.6,0-3.8,2.2-3.8,4.5
			C4.5,10.2,5.3,13,8.3,13 M8.3,0.2c4.5,0,8,3,8,8c0,4.3-2.9,7.8-8,7.8c-5.1,0-8-3.5-8-7.8C0.3,3.2,3.8,0.2,8.3,0.2"/>
		<path id="Fill-25" class="st2" d="M59.6,0.9h3.7V3h0.1c1.2-1.8,3.1-2.5,4.6-2.5c2.1,0,3.7,0.8,4.5,2.7c0.9-1.8,2.9-2.7,4.8-2.7
			c3.8,0,4.8,2.6,4.8,5.9V16h-4V7c0-1.4,0-3.4-2.3-3.4c-2.6,0-3,3.1-3,5.1V16h-4V7c0-1.4,0-3.4-2.3-3.4c-2.6,0-3,3.1-3,5.1V16h-4
			V0.9z"/>
		<path id="Fill-27" class="st2" d="M154.3,14.1c0.9,0,1.4-0.3,1.8-0.8l1.3,1.5c-0.7,0.8-1.7,1.3-3.1,1.3c-3.2,0-5.1-2.2-5.1-5
			c0-3.2,2.2-5.1,5.1-5.1c1.4,0,2.4,0.6,3.2,1.5l-1.3,1.4c-0.4-0.6-1-1-1.9-1c-1.6,0-2.4,1.4-2.4,2.9
			C151.9,12.3,152.4,14.1,154.3,14.1"/>
		<path id="Fill-29" class="st2" d="M165.7,11c0-1.3-0.5-3.1-2.1-3.1c-1.6,0-2.3,1.7-2.3,3.1l-0.1,3.7l0,1.2h-2.5v-14h2.5v5.6h0
			c0.7-0.9,1.6-1.5,2.9-1.5c3,0,4.1,2.4,4.1,5v4.8h-2.6V11"/>
	</g>
	<polygon id="Fill-32" class="st2" points="229.5,80.8 232,80.8 232,78.4 229.5,78.4 	"/>
</g>
</svg>
