<?xml version="1.0" encoding="UTF-8"?>
<svg width="222px" height="50px" viewBox="0 0 222 50" version="1.1" xmlns="http://www.w3.org/2000/svg" xmlns:xlink="http://www.w3.org/1999/xlink">
    <!-- Generator: Sketch 63.1 (92452) - https://sketch.com -->
    <title>Page 1</title>
    <desc>Created with Sketch.</desc>
    <g id="Page-1" stroke="none" stroke-width="1" fill="none" fill-rule="evenodd">
        <g id="logo-tuttoimmobilich(1)" transform="translate(-31.000000, -46.000000)">
            <polygon id="Fill-1" fill="#0067A5" points="130.6743 95.7237 95.9093 80.3497 111.4733 46.0077 146.2403 61.3847"></polygon>
            <path d="M93.1691,78.1916 C96.2321,78.1916 97.0351,75.4916 97.0351,72.9626 C97.0351,70.6416 95.7861,68.4696 93.1691,68.4696 C90.5801,68.4696 89.3321,70.6996 89.3321,72.9626 C89.3321,75.4606 90.1351,78.1916 93.1691,78.1916 M93.1691,65.4146 C97.7181,65.4146 101.1971,68.4386 101.1971,73.4346 C101.1971,77.7816 98.2521,81.2486 93.1691,81.2486 C88.1121,81.2486 85.1691,77.7816 85.1691,73.4346 C85.1691,68.4386 88.6481,65.4146 93.1691,65.4146" id="Fill-2" fill="#FFFFFE"></path>
            <path d="M107.465,80.753 L111.45,80.753 L111.45,65.624 L107.465,65.624 L107.465,80.753 Z M107.465,62.86 L111.45,62.86 L111.45,59.1 L107.465,59.1 L107.465,62.86 Z" id="Fill-4" fill="#FFFFFE"></path>
            <g id="Group-19" transform="translate(31.000000, 57.732000)">
                <path d="M84.4628,7.8918 L88.1818,7.8918 L88.1818,10.0068 L88.2408,10.0068 C89.4888,8.1538 91.3058,7.5348 92.7908,7.5348 C94.9318,7.5348 96.4508,8.3308 97.3108,10.2108 C98.2348,8.3898 100.2298,7.5348 102.1018,7.5348 C105.8748,7.5348 106.9458,10.0928 106.9458,13.4718 L106.9458,23.0208 L102.9598,23.0208 L102.9598,14.0018 C102.9598,12.5888 102.9598,10.5918 100.6718,10.5918 C98.0248,10.5918 97.6988,13.7058 97.6988,15.6738 L97.6988,23.0208 L93.7148,23.0208 L93.7148,14.0018 C93.7148,12.5888 93.7148,10.5918 91.4228,10.5918 C88.7758,10.5918 88.4498,13.7058 88.4498,15.6738 L88.4498,23.0208 L84.4628,23.0208 L84.4628,7.8918 Z" id="Fill-5" fill="#FFFFFE"></path>
                <path d="M3.2017,10.4174 L0.2567,10.4174 L0.2567,7.5364 L3.2017,7.5364 L3.2017,4.5134 L7.1857,3.2494 L7.1857,7.5364 L10.7257,7.5364 L10.7257,10.4174 L7.1857,10.4174 L7.1857,17.4684 C7.1857,18.7614 7.5427,19.9654 9.0597,19.9654 C9.7737,19.9654 10.4577,19.8194 10.8737,19.5534 L10.9917,22.6684 C10.1597,22.9014 9.2367,23.0204 8.0487,23.0204 C4.9267,23.0204 3.2017,21.1094 3.2017,18.1144 L3.2017,10.4174 Z" id="Fill-7" fill="#0067A5"></path>
                <path d="M27.4079,22.668 L23.6309,22.668 L23.6309,20.609 L23.5729,20.609 C22.3529,22.081 20.6269,23.021 18.5469,23.021 C14.9189,23.021 13.3419,20.494 13.3419,17.086 L13.3419,7.536 L17.3269,7.536 L17.3269,15.616 C17.3269,17.468 17.3569,19.964 19.9139,19.964 C22.7999,19.964 23.4229,16.88 23.4229,14.942 L23.4229,7.536 L27.4079,7.536 L27.4079,22.668 Z" id="Fill-9" fill="#0067A5"></path>
                <path d="M32.7009,10.4174 L29.7579,10.4174 L29.7579,7.5364 L32.7009,7.5364 L32.7009,4.5134 L36.6859,3.2494 L36.6859,7.5364 L40.2279,7.5364 L40.2279,10.4174 L36.6859,10.4174 L36.6859,17.4684 C36.6859,18.7614 37.0439,19.9654 38.5619,19.9654 C39.2739,19.9654 39.9589,19.8194 40.3749,19.5534 L40.4939,22.6684 C39.6599,22.9014 38.7389,23.0204 37.5519,23.0204 C34.4279,23.0204 32.7009,21.1094 32.7009,18.1144 L32.7009,10.4174 Z" id="Fill-11" fill="#0067A5"></path>
                <path d="M44.1515,10.4174 L41.2065,10.4174 L41.2065,7.5364 L44.1515,7.5364 L44.1515,4.5134 L48.1365,3.2494 L48.1365,7.5364 L51.6755,7.5364 L51.6755,10.4174 L48.1365,10.4174 L48.1365,17.4684 C48.1365,18.7614 48.4935,19.9654 50.0105,19.9654 C50.7235,19.9654 51.4075,19.8194 51.8225,19.5534 L51.9435,22.6684 C51.1105,22.9014 50.1875,23.0204 48.9995,23.0204 C45.8765,23.0204 44.1515,21.1094 44.1515,18.1144 L44.1515,10.4174 Z" id="Fill-13" fill="#0067A5"></path>
                <path d="M145.9773,19.9642 C149.0393,19.9642 149.8393,17.2642 149.8393,14.7352 C149.8393,12.4142 148.5933,10.2422 145.9773,10.2422 C143.3863,10.2422 142.1413,12.4722 142.1413,14.7352 C142.1413,17.2332 142.9443,19.9642 145.9773,19.9642 M145.9773,7.1872 C150.5263,7.1872 154.0053,10.2112 154.0053,15.2072 C154.0053,19.5542 151.0633,23.0212 145.9773,23.0212 C140.9203,23.0212 137.9803,19.5542 137.9803,15.2072 C137.9803,10.2112 141.4573,7.1872 145.9773,7.1872" id="Fill-15" fill="#0067A5"></path>
                <path d="M164.5335,19.9642 C167.1495,19.9642 167.8945,17.1442 167.8945,15.0572 C167.8945,13.0302 167.1805,10.2422 164.5935,10.2422 C162.0365,10.2422 161.0265,12.9442 161.0265,15.0572 C161.0265,17.2042 161.8865,19.9642 164.5335,19.9642 L164.5335,19.9642 Z M157.0075,0.6352 L160.9955,0.6352 L160.9955,9.4772 L161.0535,9.4772 C162.1525,8.0382 163.5495,7.1872 165.6335,7.1872 C170.3355,7.1872 172.0595,10.8872 172.0595,15.0572 C172.0595,19.2012 170.3355,23.0212 165.6335,23.0212 C163.9375,23.0212 162.0945,22.4332 160.9375,20.8162 L160.8755,20.8162 L160.8755,22.6702 L157.0075,22.6702 L157.0075,0.6352 Z" id="Fill-17" fill="#0067A5"></path>
            </g>
            <path d="M206.153,80.753 L210.139,80.753 L210.139,65.62 L206.153,65.62 L206.153,80.753 Z M206.153,62.86 L210.139,62.86 L210.139,59.098 L206.153,59.098 L206.153,62.86 Z" id="Fill-20" fill="#0067A5"></path>
            <polygon id="Fill-21" fill="#0067A5" points="214.299 80.753 218.285 80.753 218.285 58.718 214.299 58.718"></polygon>
            <path d="M222.448,80.753 L226.432,80.753 L226.432,65.62 L222.448,65.62 L222.448,80.753 Z M222.448,62.86 L226.432,62.86 L226.432,59.098 L222.448,59.098 L222.448,62.86 Z" id="Fill-22" fill="#0067A5"></path>
            <g id="Group-31" transform="translate(84.000000, 64.732000)" fill="#0067A5">
                <path d="M8.3114,12.9642 C11.3744,12.9642 12.1774,10.2642 12.1774,7.7352 C12.1774,5.4142 10.9284,3.2422 8.3114,3.2422 C5.7224,3.2422 4.4744,5.4722 4.4744,7.7352 C4.4744,10.2332 5.2774,12.9642 8.3114,12.9642 M8.3114,0.1872 C12.8604,0.1872 16.3394,3.2112 16.3394,8.2072 C16.3394,12.5542 13.3944,16.0212 8.3114,16.0212 C3.2544,16.0212 0.3114,12.5542 0.3114,8.2072 C0.3114,3.2112 3.7904,0.1872 8.3114,0.1872" id="Fill-23"></path>
                <path d="M59.5815,0.8879 L63.2955,0.8879 L63.2955,3.0029 L63.3555,3.0029 C64.6055,1.1539 66.4225,0.5369 67.9065,0.5369 C70.0515,0.5369 71.5665,1.3309 72.4265,3.2109 C73.3505,1.3899 75.3435,0.5369 77.2155,0.5369 C80.9945,0.5369 82.0615,3.0919 82.0615,6.4729 L82.0615,16.0209 L78.0755,16.0209 L78.0755,6.9989 C78.0755,5.5899 78.0755,3.5949 75.7855,3.5949 C73.1425,3.5949 72.8125,6.7059 72.8125,8.6759 L72.8125,16.0209 L68.8305,16.0209 L68.8305,6.9989 C68.8305,5.5899 68.8305,3.5949 66.5385,3.5949 C63.8935,3.5949 63.5635,6.7059 63.5635,8.6759 L63.5635,16.0209 L59.5815,16.0209 L59.5815,0.8879 Z" id="Fill-25"></path>
                <path d="M154.2902,14.077 C155.1472,14.077 155.7252,13.745 156.1042,13.235 L157.3722,14.751 C156.6442,15.539 155.6492,16.021 154.2902,16.021 C151.0742,16.021 149.2042,13.816 149.2042,11.052 C149.2042,7.875 151.4162,5.952 154.2902,5.952 C155.6792,5.952 156.6442,6.563 157.4932,7.473 L156.2352,8.9 C155.8332,8.297 155.1882,7.894 154.2902,7.894 C152.6422,7.894 151.8502,9.313 151.8502,10.752 C151.8502,12.34 152.3612,14.077 154.2902,14.077" id="Fill-27"></path>
                <path d="M165.7107,10.9566 C165.7107,9.6676 165.2567,7.8946 163.6117,7.8946 C161.9847,7.8946 161.3437,9.6126 161.3437,10.9566 L161.2867,14.6186 L161.2837,15.7976 L158.7877,15.7976 L158.7877,1.7846 L161.3237,1.7846 L161.3237,7.4076 L161.3607,7.4076 C162.0587,6.4926 162.9477,5.9516 164.2727,5.9516 C167.2637,5.9516 168.3587,8.3046 168.3587,10.9566 L168.3587,15.7616 L165.7107,15.7616 L165.7107,10.9566" id="Fill-29"></path>
            </g>
            <polygon id="Fill-32" fill="#0067A5" points="229.515 80.752 232.049 80.752 232.049 78.36 229.515 78.36"></polygon>
        </g>
    </g>
</svg>
